<?xml version="1.0" encoding="utf-8"?>
<!-- Generator: Adobe Illustrator 19.0.1, SVG Export Plug-In . SVG Version: 6.00 Build 0)  -->
<svg version="1.1" id="Layer_1" xmlns="http://www.w3.org/2000/svg" xmlns:xlink="http://www.w3.org/1999/xlink" x="0px" y="0px"
	 viewBox="0 0 297 100" style="enable-background:new 0 0 297 100;" xml:space="preserve">
<style type="text/css">
	.st0{fill:#FFFFFF;}
	.st1{fill:#E2231A;}
	.st2{fill:#333E48;}
</style>
<g>
	<g>
		<polygon class="st0" points="228.2,85 10.4,85 10.5,33.1 228.3,33.1 		"/>
		<path class="st1" d="M12.3,85V36c0-1.6,1.3-2.8,2.8-2.8H72V19.3c0-1.6-1.3-2.8-2.8-2.8H10.8c-1.6,0-2.8,1.3-2.8,2.8v62.9
			c0,1.6,1.3,2.8,2.8,2.8"/>
		<g>
			<path class="st0" d="M27.1,28.7c-2,0-3.6-1.4-3.6-3.2c0-1.8,1.6-3.3,3.6-3.3c2,0,3.6,1.4,3.6,3.3C30.7,27.2,29.2,28.7,27.1,28.7z
				 M27.1,23.5c-1.3,0-2.3,0.9-2.3,1.9c0,1.1,1,1.9,2.3,1.9c1.3,0,2.3-0.8,2.3-1.9C29.4,24.3,28.4,23.5,27.1,23.5z"/>
			<path class="st0" d="M40,28.7c-0.7,0-1.3-0.6-1.3-1.3v-2.7c0-0.6-0.6-1.2-1.3-1.2c-0.7,0-1.2,0.5-1.2,1.2c0,0,0,0,0,4
				c-0.7,0-1.3-0.6-1.3-1.3v-2.7c0-0.6-0.6-1.2-1.3-1.2c-0.7,0-1.2,0.5-1.2,1.2v2.7c0,0.7-0.6,1.3-1.3,1.3v-4c0-1.4,1.1-2.5,2.5-2.5
				c0.8,0,1.4,0.3,1.9,0.8c0.5-0.5,1.1-0.8,1.9-0.8c1.4,0,2.6,1.1,2.6,2.5V28.7z"/>
			<path class="st0" d="M44.3,28.6c-0.3,0-0.7,0-1-0.1c-0.7-0.2-1.1-0.9-0.9-1.6c0-0.1,0.1-0.2,0.1-0.2l0,0c0.4,0.4,1,0.6,1.8,0.6
				c1.2,0,2.1-0.8,2.1-1.9c0-1.1-0.9-2-2.1-2c-1.1,0-2.3,0.6-2.3,2v4.2c0,0.7-0.6,1.3-1.3,1.3v-5.5c0-1.9,1.5-3.3,3.6-3.3
				c0.9,0,1.8,0.3,2.4,0.9c0.7,0.6,1,1.4,1,2.3C47.7,27.2,46.2,28.6,44.3,28.6z"/>
			<path class="st0" d="M53.6,20.9h-2.8v7.7h-0.1c-0.7,0-1.3-0.6-1.3-1.3v-6.4h-2.8c-0.7,0-1.3-0.6-1.3-1.3h9.5
				C54.9,20.3,54.3,20.9,53.6,20.9z"/>
			<path class="st0" d="M64.8,27.8l-0.7-1.5h-4.6l-0.7,1.5c-0.3,0.6-1.2,0.8-1.8,0.8l3.8-8.3c0.2-0.5,0.6-0.8,1-0.8
				c0.4,0,0.8,0.3,1,0.8l3.7,8.2C65.8,28.6,65.1,28.4,64.8,27.8z M61.9,21L60,25.1h3.5L61.7,21L61.9,21z"/>
			<path class="st0" d="M22.1,22.1c-0.7-0.7-1.7-1.2-2.9-1.2c-2,0-3.7,1.5-3.7,3.3c0,1.8,1.7,3.3,3.7,3.3c1,0,1.9-0.4,2.6-1
				c0.5-0.4,1.2-0.4,1.6,0c-0.4,0.5-0.8,1-1.4,1.4c-0.8,0.5-1.8,0.8-2.8,0.8c-2.7,0-5-2-5-4.6c0-2.5,2.2-4.6,5-4.6
				c1.9,0,3.7,1.1,4.5,2.7C23.2,22.6,22.5,22.5,22.1,22.1z"/>
			<g>
				<path class="st0" d="M67,28.2c-0.4,0-0.7-0.3-0.7-0.6c0-0.3,0.3-0.6,0.7-0.6c0.4,0,0.7,0.3,0.7,0.6C67.7,27.9,67.4,28.2,67,28.2
					z M67,27.1c-0.3,0-0.5,0.2-0.5,0.5c0,0.3,0.2,0.5,0.5,0.5c0.3,0,0.5-0.2,0.5-0.5C67.6,27.3,67.3,27.1,67,27.1z M67.3,27.6
					C67.3,27.6,67.3,27.6,67.3,27.6c-0.1,0,0,0.1,0.1,0.2l0,0c-0.1,0-0.1,0-0.2,0C67,27.7,67,27.6,67,27.6s0,0-0.2,0v0
					c0-0.1,0.1-0.1,0.1-0.1h0.1c0.1,0,0.1,0,0.1,0c0,0,0,0,0-0.1c0,0,0-0.1-0.2-0.1c-0.2,0-0.2,0-0.2,0s0,0,0,0.4
					c0,0.1-0.1,0.1-0.1,0.1h0v-0.6c0-0.1,0.1-0.1,0.1-0.1h0.3c0.3,0,0.3,0.2,0.3,0.2C67.4,27.5,67.4,27.6,67.3,27.6z"/>
			</g>
			<path class="st0" d="M55.3,19.6v7.8c0,0.7,0.6,1.3,1.3,1.3v-7.8C56.6,20.2,56,19.6,55.3,19.6z"/>
		</g>
		<g>
			<path class="st2" d="M271,80.3h-1.1v-0.8h3.1v0.8h-1.1v3H271V80.3z M273.7,79.5h0.9l1,1.6l1-1.6h0.9v3.7h-0.8v-2.5l-1,1.6h-0.1
				l-1-1.6v2.5h-0.8V79.5z"/>
		</g>
		<g>
			<path class="st2" d="M265,33.1h-37v46.6c0,1.6-1.3,2.8-2.8,2.8h-15.4c-0.9,1-1.8,1.8-2.9,2.4H265c1.6,0,2.8-1.3,2.8-2.8V36
				C267.8,34.4,266.6,33.1,265,33.1z"/>
			<path class="st2" d="M192.1,83.1l0.2-0.5h-180V85h183.4c-0.6-0.2-1.2-0.5-1.8-0.8L192.1,83.1z"/>
		</g>
		<g>
			<path class="st0" d="M243.7,62.5h-9.1v-5.2h9.1v-9.1h5.4v9.1h9.1v5.2h-9.1v9.1h-5.4V62.5z"/>
		</g>
	</g>
	<g>
		<g>
			<path class="st1" d="M18.7,69.7l4-4.7c3.6,3.1,7.2,4.9,11.9,4.9c4.1,0,6.7-1.9,6.7-4.7V65c0-2.7-1.5-4.1-8.5-5.7
				c-8-1.9-12.5-4.3-12.5-11.2v-0.1c0-6.4,5.4-10.9,12.8-10.9c5.5,0,9.8,1.7,13.6,4.7l-3.5,5c-3.4-2.5-6.8-3.9-10.2-3.9
				c-3.9,0-6.1,2-6.1,4.5v0.1c0,2.9,1.7,4.2,8.9,5.9c7.9,1.9,12.1,4.8,12.1,11v0.1c0,7-5.5,11.2-13.4,11.2
				C28.6,75.7,23.2,73.7,18.7,69.7z"/>
			<path class="st1" d="M51.1,61.1V61c0-8.1,5.7-14.8,13.8-14.8c9,0,13.6,7.1,13.6,15.2c0,0.6-0.1,1.2-0.1,1.8H57.6
				c0.7,4.6,4,7.2,8.2,7.2c3.2,0,5.4-1.2,7.7-3.4l3.8,3.4c-2.7,3.2-6.4,5.3-11.6,5.3C57.4,75.8,51.1,69.9,51.1,61.1z M72.1,59
				c-0.4-4.2-2.9-7.5-7.2-7.5c-4,0-6.8,3.1-7.4,7.5H72.1z"/>
			<path class="st1" d="M81.4,61.2V61c0-8.1,6.2-14.8,14.7-14.8c5.4,0,8.7,2,11.3,4.9l-4,4.3c-2-2.1-4.1-3.5-7.4-3.5
				c-4.7,0-8.2,4.1-8.2,9V61c0,5,3.5,9.1,8.5,9.1c3.1,0,5.3-1.4,7.4-3.5l3.9,3.9c-2.8,3.1-6.1,5.3-11.6,5.3
				C87.6,75.8,81.4,69.2,81.4,61.2z"/>
			<path class="st1" d="M111.1,64.9v-18h6.5v16.1c0,4.4,2.2,6.9,6.1,6.9c3.8,0,6.4-2.6,6.4-7v-16h6.5v28.3H130v-4.4
				c-1.8,2.7-4.5,5-8.9,5C114.8,75.8,111.1,71.5,111.1,64.9z"/>
			<path class="st1" d="M142.5,46.8h6.5v6.4c1.8-4.2,5-7.1,10-6.9v6.9h-0.4c-5.7,0-9.7,3.7-9.7,11.2v10.8h-6.5V46.8z"/>
			<path class="st1" d="M162.7,36.3h7v6.2h-7V36.3z M162.9,46.8h6.5v28.3h-6.5V46.8z"/>
			<path class="st1" d="M177.1,67.3V52.4h-3.6v-5.6h3.6V39h6.5v7.8h7.6v5.6h-7.6v13.9c0,2.5,1.3,3.5,3.5,3.5c1.4,0,2.7-0.3,4-1v5.3
				c-1.6,0.9-3.4,1.4-5.8,1.4C180.5,75.6,177.1,73.6,177.1,67.3z"/>
			<path class="st1" d="M194.9,82.2l2.2-4.8c1.2,0.6,2.5,1.1,3.8,1.1c1.8,0,3-0.8,4-3.3l-11.8-28.3h6.9l8.1,21l7.4-21h6.8L210.9,76
				c-2.3,5.8-4.8,7.9-9.3,7.9C198.8,83.9,196.9,83.3,194.9,82.2z"/>
		</g>
	</g>
</g>
</svg>
